<svg xmlns="http://www.w3.org/2000/svg" width="40" height="40" viewBox="0 0 40 40"><defs><style>.a{fill:#fff;stroke:#2fe078;}.b{fill:#2fe078;}.c{stroke:none;}.d{fill:none;}</style></defs><g transform="translate(-273 -386)"><g class="a" transform="translate(273 386)"><circle class="c" cx="20" cy="20" r="20"/><circle class="d" cx="20" cy="20" r="19.5"/></g><path class="b" d="M67.367,59.485l4.355,4.355L63.84,71.722l-4.355-4.355ZM64.46,72.976l8.517-8.517a.865.865,0,0,0,0-1.24l-4.989-4.989a.9.9,0,0,0-1.24,0l-8.517,8.517a.865.865,0,0,0,0,1.24l4.989,4.989a.9.9,0,0,0,1.24,0ZM76.711,64.2l-12.5,12.513a1.78,1.78,0,0,1-2.494,0l-1.736-1.736a2.651,2.651,0,0,0-3.748-3.748L54.51,69.49a1.78,1.78,0,0,1,0-2.494l12.5-12.485a1.78,1.78,0,0,1,2.494,0l1.723,1.723a2.651,2.651,0,0,0,3.748,3.748L76.711,61.7a1.78,1.78,0,0,1,0,2.494Z" transform="translate(227 340)"/></g></svg>