<svg xmlns="http://www.w3.org/2000/svg" width="40" height="40" viewBox="0 0 40 40">
  <g id="Group_1424" data-name="Group 1424" transform="translate(-6007 -4120)">
    <circle id="Ellipse_415" data-name="Ellipse 415" cx="20" cy="20" r="20" transform="translate(6007 4120)" fill="rgba(47,224,120,0.1)"/>
    <path id="Path_2300" data-name="Path 2300" d="M0,0H24V24H0Z" transform="translate(6015 4128)" fill="none"/>
    <g id="call-24px_1_" data-name="call-24px (1)" transform="translate(6015 4128)">
      <path id="Path_2313" data-name="Path 2313" d="M0,0H24V24H0Z" fill="none"/>
      <path id="Path_2314" data-name="Path 2314" d="M19.23,15.26l-2.54-.29a1.991,1.991,0,0,0-1.64.57l-1.84,1.84a15.045,15.045,0,0,1-6.59-6.59L8.47,8.94A1.991,1.991,0,0,0,9.04,7.3L8.75,4.78A2,2,0,0,0,6.76,3.01H5.03a1.985,1.985,0,0,0-2,2.07A16.992,16.992,0,0,0,18.92,20.97a1.985,1.985,0,0,0,2.07-2V17.24A1.982,1.982,0,0,0,19.23,15.26Z" fill="#2fe078"/>
    </g>
  </g>
</svg>
