<?xml version="1.0" encoding="UTF-8"?>
<svg width="68px" height="78px" viewBox="0 0 68 78" version="1.1" xmlns="http://www.w3.org/2000/svg" xmlns:xlink="http://www.w3.org/1999/xlink">
    <!-- Generator: Sketch 48.2 (47327) - http://www.bohemiancoding.com/sketch -->
    <title>Logo-White-Minimal</title>
    <defs>
        <polygon id="path-1" points="0 0.518283636 9.99266182 0.518283636 9.99266182 13.5446109 0 13.5446109"></polygon>
        <polygon id="path-3" points="0.856058182 0.480698182 14.4963636 0.480698182 14.4963636 13.5997527 0.856058182 13.5997527"></polygon>
    </defs>
    <g id="Tongo-consumer" stroke="none" stroke-width="1" fill="none" fill-rule="evenodd" transform="translate(-221.000000, -36.000000)">
        <g id="Logo" transform="translate(221.000000, 36.000000)">
            <path d="M24.7293745,16.7877164 L39.2220291,13.9898255 C39.6176655,13.9131709 39.9477745,14.2927345 39.8179564,14.6735345 L35.0060291,28.7730255 C34.9899564,28.8175345 34.9244291,28.8113527 34.9182473,28.7643709 L33.9316291,20.3880073 C33.8710473,19.8662618 33.5026109,19.4310618 32.9969382,19.2839345 L24.7256655,16.8742618 C24.67992,16.8618982 24.6823927,16.7963709 24.7293745,16.7877164" id="Fill-1" fill="#FFF"></path>
            <path d="M24.9142109,1.89336727 C20.49792,3.78500364 16.9779927,7.40507636 15.1432291,11.8448582 C11.9608291,19.5387491 13.3158836,27.0521309 17.3081018,32.5143855 C17.7445382,33.1115491 18.6273018,33.1498764 19.15152,32.6306036 L21.8641018,29.9489309 C22.3017745,29.51744 22.3388655,28.8485673 21.9951564,28.3391855 C20.0009018,25.3805673 19.06992,21.6455127 19.7622836,17.6792582 C20.8255564,11.5988218 25.8872291,6.77205818 32.0072291,5.95976727 C41.5049745,4.69867636 49.5178473,12.6756945 48.3161018,22.1647855 C47.5149382,28.5036218 42.3840291,33.7037673 36.05632,34.5852945 C32.7181382,35.0501673 29.5654109,34.3701673 26.9233018,32.8852945 C26.4077382,32.5959855 25.7710109,32.6516218 25.3481745,33.06704 L21.7454109,36.2543855 C21.5735564,36.3928582 21.4400291,36.5177309 21.2817745,36.6524945 L21.2694109,36.6475491 C21.2694109,36.6475491 19.3443927,38.0891491 18.7546473,39.0399127 C18.5457018,39.3737309 18.7633018,39.7223855 18.9289745,39.8225309 C19.5644655,40.2095127 21.9852655,39.4479127 22.3277382,39.4800582 L22.3302109,39.4788218 C22.3685382,39.4788218 22.4130473,39.4800582 22.4501382,39.4800582 C22.6788655,39.4775855 22.8890473,39.5802036 23.02752,39.7619491 L33.11872,53.0108218 C33.3449745,53.3075491 33.7913018,53.3112582 34.0225018,53.0194764 L48.6128291,34.6013673 C48.6857745,34.5247127 48.7624291,34.4517673 48.8329018,34.3751127 C49.0641018,34.1266036 49.2878836,33.8731491 49.50672,33.6135127 C52.4950109,30.0564945 54.2951564,25.4683491 54.2951564,20.45984 C54.2951564,6.28616727 39.8828655,-4.52088727 24.9142109,1.89336727" id="Fill-15" fill="#2FE078"></path>
        </g>
    </g>
</svg>