<svg xmlns="http://www.w3.org/2000/svg" width="26" height="34" viewBox="0 0 26 34"><defs><style>.a{fill:#2fe078;}</style></defs><g transform="translate(-5077.607 1724)"><path class="a" d="M33.939,36.339l6.679-1.294a.777.777,0,0,1,.906,1.01l-2.2,6.394a.469.469,0,0,1-.932-.1l-.362-3.081a1.294,1.294,0,0,0-.906-1.087l-3.21-.932a.466.466,0,0,1,.026-.906Z" transform="translate(5052.712 -1749.958)"/><path class="a" d="M7.4,1.214A11.834,11.834,0,0,0,1.182,7.557a13.443,13.443,0,0,0,1.367,13.2.772.772,0,0,0,1.16.078l1.728-1.709a.8.8,0,0,0,.077-1.035,9.187,9.187,0,1,1,3.146,2.9.823.823,0,0,0-1.006.1L5.359,23.141l-.284.259h0a9.463,9.463,0,0,0-1.6,1.527.363.363,0,0,0,.1.492c.413.259,1.934-.233,2.166-.207h.077a.463.463,0,0,1,.361.181l6.42,8.465a.36.36,0,0,0,.567,0l9.282-11.753.129-.155.438-.492A13.1,13.1,0,0,0,7.4,1.214Z" transform="translate(5077.543 -1723.996)"/></g></svg>