<?xml version="1.0" encoding="UTF-8"?>
<svg width="68px" height="78px" viewBox="0 0 68 78" version="1.1" xmlns="http://www.w3.org/2000/svg" xmlns:xlink="http://www.w3.org/1999/xlink">
    <!-- Generator: Sketch 48.2 (47327) - http://www.bohemiancoding.com/sketch -->
    <title>Logo</title>
    <desc>Created with Sketch.</desc>
    <defs>
        <polygon id="path-1" points="0 0.518283636 9.99266182 0.518283636 9.99266182 13.5446109 0 13.5446109"></polygon>
        <polygon id="path-3" points="0.856058182 0.480698182 14.4963636 0.480698182 14.4963636 13.5997527 0.856058182 13.5997527"></polygon>
    </defs>
    <g id="Tongo-consumer" stroke="none" stroke-width="1" fill="none" fill-rule="evenodd" transform="translate(-221.000000, -36.000000)">
        <g id="Logo" transform="translate(221.000000, 36.000000)">
            <path d="M24.7293745,16.7877164 L39.2220291,13.9898255 C39.6176655,13.9131709 39.9477745,14.2927345 39.8179564,14.6735345 L35.0060291,28.7730255 C34.9899564,28.8175345 34.9244291,28.8113527 34.9182473,28.7643709 L33.9316291,20.3880073 C33.8710473,19.8662618 33.5026109,19.4310618 32.9969382,19.2839345 L24.7256655,16.8742618 C24.67992,16.8618982 24.6823927,16.7963709 24.7293745,16.7877164" id="Fill-1" fill="#292829"></path>
            <g id="Group-5" transform="translate(0.000000, 64.104218)">
                <mask id="mask-2" fill="white">
                    <use xlink:href="#path-1"></use>
                </mask>
                <g id="Clip-4"></g>
                <polygon id="Fill-3" fill="#292829" mask="url(#mask-2)" points="9.99266182 0.518283636 9.99266182 1.89559273 5.73215273 1.89559273 5.73215273 13.5446109 4.24357091 13.5446109 4.24357091 1.89559273 -0.000865454545 1.89559273 -0.000865454545 0.518283636"></polygon>
            </g>
            <path d="M11.5930109,71.1351709 C11.5930109,74.0196073 14.0125745,76.3452073 16.9155564,76.3452073 C19.8185382,76.3452073 22.1997745,74.0196073 22.1997745,71.1351709 C22.1997745,68.2507345 19.8185382,65.9622255 16.9155564,65.9622255 C14.0125745,65.9622255 11.5930109,68.2507345 11.5930109,71.1351709 M23.7254473,71.1351709 C23.7254473,74.8009891 20.7111927,77.7039709 16.9155564,77.7039709 C13.1001382,77.7039709 10.0858836,74.8009891 10.0858836,71.1351709 C10.0858836,67.4693527 13.1001382,64.5849164 16.9155564,64.5849164 C20.7111927,64.5849164 23.7254473,67.4693527 23.7254473,71.1351709" id="Fill-6" fill="#292829"></path>
            <polygon id="Fill-8" fill="#292829" points="27.9869455 64.6225018 35.8032364 75.21072 35.8032364 64.6225018 37.2720364 64.6225018 37.2720364 77.6488291 35.7476 77.6488291 27.9313091 67.0791564 27.9313091 77.6488291 26.4427273 77.6488291 26.4427273 64.6225018"></polygon>
            <path d="M50.3169091,71.2842764 L51.6385818,71.2842764 L51.6385818,76.0108945 C50.354,77.0346036 48.5489091,77.7034764 46.8006909,77.7034764 C43.0236,77.7034764 40.0081091,74.8017309 40.0081091,71.1346764 C40.0081091,67.4700945 43.0409091,64.5856582 46.8748727,64.5856582 C48.6799636,64.5856582 50.4294182,65.2743127 51.6769091,66.3709673 L50.8201091,67.4503127 C49.7593091,66.5020218 48.3263636,65.9431855 46.8748727,65.9431855 C43.8977091,65.9431855 41.5152364,68.25024 41.5152364,71.1346764 C41.5152364,74.0388945 43.9162545,76.3459491 46.8934182,76.3459491 C48.0667273,76.3459491 49.3129818,75.9367127 50.3169091,75.2480582 L50.3169091,71.2842764 Z" id="Fill-10" fill="#292829"></path>
            <g id="Group-14" transform="translate(53.163636, 64.104218)">
                <mask id="mask-4" fill="white">
                    <use xlink:href="#path-3"></use>
                </mask>
                <g id="Clip-13"></g>
                <path d="M2.36442182,7.03095273 C2.36442182,9.91538909 4.78274909,12.2409891 7.68696727,12.2409891 C10.5887127,12.2409891 12.9711855,9.91538909 12.9711855,7.03095273 C12.9711855,4.14651636 10.5887127,1.85800727 7.68696727,1.85800727 C4.78274909,1.85800727 2.36442182,4.14651636 2.36442182,7.03095273 M14.4968582,7.03095273 C14.4968582,10.6967709 11.4826036,13.5997527 7.68696727,13.5997527 C3.87154909,13.5997527 0.856058182,10.6967709 0.856058182,7.03095273 C0.856058182,3.36513455 3.87154909,0.480698182 7.68696727,0.480698182 C11.4826036,0.480698182 14.4968582,3.36513455 14.4968582,7.03095273" id="Fill-12" fill="#292829" mask="url(#mask-4)"></path>
            </g>
            <path d="M24.9142109,1.89336727 C20.49792,3.78500364 16.9779927,7.40507636 15.1432291,11.8448582 C11.9608291,19.5387491 13.3158836,27.0521309 17.3081018,32.5143855 C17.7445382,33.1115491 18.6273018,33.1498764 19.15152,32.6306036 L21.8641018,29.9489309 C22.3017745,29.51744 22.3388655,28.8485673 21.9951564,28.3391855 C20.0009018,25.3805673 19.06992,21.6455127 19.7622836,17.6792582 C20.8255564,11.5988218 25.8872291,6.77205818 32.0072291,5.95976727 C41.5049745,4.69867636 49.5178473,12.6756945 48.3161018,22.1647855 C47.5149382,28.5036218 42.3840291,33.7037673 36.05632,34.5852945 C32.7181382,35.0501673 29.5654109,34.3701673 26.9233018,32.8852945 C26.4077382,32.5959855 25.7710109,32.6516218 25.3481745,33.06704 L21.7454109,36.2543855 C21.5735564,36.3928582 21.4400291,36.5177309 21.2817745,36.6524945 L21.2694109,36.6475491 C21.2694109,36.6475491 19.3443927,38.0891491 18.7546473,39.0399127 C18.5457018,39.3737309 18.7633018,39.7223855 18.9289745,39.8225309 C19.5644655,40.2095127 21.9852655,39.4479127 22.3277382,39.4800582 L22.3302109,39.4788218 C22.3685382,39.4788218 22.4130473,39.4800582 22.4501382,39.4800582 C22.6788655,39.4775855 22.8890473,39.5802036 23.02752,39.7619491 L33.11872,53.0108218 C33.3449745,53.3075491 33.7913018,53.3112582 34.0225018,53.0194764 L48.6128291,34.6013673 C48.6857745,34.5247127 48.7624291,34.4517673 48.8329018,34.3751127 C49.0641018,34.1266036 49.2878836,33.8731491 49.50672,33.6135127 C52.4950109,30.0564945 54.2951564,25.4683491 54.2951564,20.45984 C54.2951564,6.28616727 39.8828655,-4.52088727 24.9142109,1.89336727" id="Fill-15" fill="#2FE078"></path>
        </g>
    </g>
</svg>