<svg xmlns="http://www.w3.org/2000/svg" width="14.734" height="14.734" viewBox="0 0 14.734 14.734"><defs><style>.a{fill:#474b4f;}.b{fill:none;}</style></defs><path class="a" d="M15.774,10.62A.923.923,0,0,0,14.9,10H8.149a.923.923,0,0,0-.872.62L6,14.3v4.911a.616.616,0,0,0,.614.614h.614a.614.614,0,0,0,.614-.614V18.6h7.367v.614a.616.616,0,0,0,.614.614h.614a.614.614,0,0,0,.614-.614V14.3ZM8.149,16.753a.921.921,0,1,1,.921-.921A.92.92,0,0,1,8.149,16.753Zm6.753,0a.921.921,0,1,1,.921-.921A.92.92,0,0,1,14.9,16.753Zm-7.674-3.07.921-2.763H14.9l.921,2.763Z" transform="translate(-4.158 -6.93)"/><path class="b" d="M0,0H14.734V14.734H0Z"/></svg>