<svg xmlns="http://www.w3.org/2000/svg" width="17.271" height="15.827" viewBox="0 0 17.271 15.827"><defs><style>.a{fill:#474b4f;}</style></defs><g transform="translate(-1.365 -3.969)"><circle class="a" cx="0.3" cy="0.3" r="0.3" transform="translate(16.153 6.003)"/><circle class="a" cx="0.3" cy="0.3" r="0.3" transform="translate(3.248 15.213)"/><path class="a" d="M18.495,5.3a2.021,2.021,0,0,0-1.976-1.326h0l-.041,0h-.042l-.037,0h-.007A2.022,2.022,0,0,0,14.41,5.3c-.509,1.434.456,3.717,1.461,4.865-.816.55-3.318.975-5.2,1.294-3.47.588-5.28.942-5.28,1.967s1.656,1.357,4.582,1.856c1.374.235,3.663.625,3.883,1.023-.326.476-3.287.96-5.067,1.251-1.65.27-2.964.495-3.917.754a5.151,5.151,0,0,0,.724-3.8,2.033,2.033,0,0,0-2.022-1.33H3.527a2.033,2.033,0,0,0-2.022,1.331c-.56,1.579.665,4.19,1.765,5.179l.009.006c.007.006.013.013.021.019h0a.407.407,0,0,0,.094.051l.015.005.023.007a.427.427,0,0,0,.113.018h0a.42.42,0,0,0,.089-.01l.028-.009.016,0,.02-.006.022-.009.033-.019a.386.386,0,0,0,.045-.029l.02-.016.006,0c.053-.048.107-.1.16-.158.618-.448,3.091-.853,4.931-1.154,3.686-.6,5.771-1,5.771-2.06,0-1.024-1.655-1.356-4.581-1.856-1.374-.235-3.664-.625-3.884-1.024.3-.434,2.872-.869,4.581-1.159,3.282-.556,5.339-.963,5.955-1.829C17.852,9.441,19.051,6.864,18.495,5.3ZM3.548,16.645A1.132,1.132,0,1,1,4.68,15.513,1.133,1.133,0,0,1,3.548,16.645Zm12.9-9.21A1.132,1.132,0,1,1,17.584,6.3,1.133,1.133,0,0,1,16.453,7.435Z"/></g></svg>