<svg xmlns="http://www.w3.org/2000/svg" width="9.539" height="14.64" viewBox="0 0 9.539 14.64"><defs><style>.a{fill:#474b4f;}</style></defs><g transform="translate(-19.973 -5)"><circle class="a" cx="1.362" cy="1.362" r="1.362" transform="translate(24.233 5)"/><path class="a" d="M29.051,26.609,27.3,26.03s-.97-2.247-1-2.315A1.369,1.369,0,0,0,25.1,23a1.317,1.317,0,0,0-.579.136l-2.383.936a.674.674,0,0,0-.375.375l-.851,2.043a.682.682,0,0,0,.63.936.66.66,0,0,0,.63-.426l.7-1.77.715-.272-1.175,5.737-2.281,2.775a.675.675,0,0,0,.085.953.654.654,0,0,0,.426.153.661.661,0,0,0,.528-.255l2.383-2.894a.648.648,0,0,0,.136-.289l.409-1.975,1.838,1.328v3.4a.681.681,0,0,0,1.362,0V30.15a.662.662,0,0,0-.272-.545L25.374,28.4l.46-2.3.323.749a.737.737,0,0,0,.409.375l2.043.681a.862.862,0,0,0,.221.034.7.7,0,0,0,.647-.46A.685.685,0,0,0,29.051,26.609Z" transform="translate(0 -14.936)"/></g></svg>