<svg xmlns="http://www.w3.org/2000/svg" width="24" height="24" viewBox="0 0 24 24"><defs><style>.a{fill:#2fe078;}</style></defs><path class="a" d="M25.055,13.013l-2.092-2.491.292-3.3a1.175,1.175,0,0,0-.866-1.257l-3.1-.74-1.62-2.856a1.1,1.1,0,0,0-1.406-.482L13.333,3.212l-2.914-1.3a1.094,1.094,0,0,0-1.406.482L7.382,5.233l-3.094.729a1.165,1.165,0,0,0-.877,1.257L3.7,10.51l-2.092,2.5a1.219,1.219,0,0,0,0,1.551L3.7,17.055l-.292,3.314a1.175,1.175,0,0,0,.866,1.257l3.1.74L9,25.211a1.107,1.107,0,0,0,1.417.482l2.914-1.328,2.914,1.3a1.094,1.094,0,0,0,1.406-.482l1.62-2.856,3.1-.74a1.165,1.165,0,0,0,.866-1.257l-.292-3.3,2.092-2.491a1.173,1.173,0,0,0,.011-1.528Zm-10.6,6.651h-2.25v-2.35h2.25Zm-1.125-4.7a1.154,1.154,0,0,1-1.125-1.175v-4.7a1.126,1.126,0,1,1,2.25,0v4.7A1.154,1.154,0,0,1,13.333,14.964Z" transform="translate(-1.333 -1.788)"/></svg>