<svg xmlns="http://www.w3.org/2000/svg" width="23.221" height="23.221" viewBox="0 0 23.221 23.221"><defs><style>.a{fill:#2fe078;}</style></defs><path class="a" d="M67.367,59.485l4.355,4.355L63.84,71.722l-4.355-4.355ZM64.46,72.976l8.517-8.517a.865.865,0,0,0,0-1.24l-4.989-4.989a.9.9,0,0,0-1.24,0l-8.517,8.517a.865.865,0,0,0,0,1.24l4.989,4.989a.9.9,0,0,0,1.24,0ZM76.711,64.2l-12.5,12.513a1.78,1.78,0,0,1-2.494,0l-1.736-1.736a2.651,2.651,0,0,0-3.748-3.748L54.51,69.49a1.78,1.78,0,0,1,0-2.494l12.5-12.485a1.78,1.78,0,0,1,2.494,0l1.723,1.723a2.651,2.651,0,0,0,3.748,3.748L76.711,61.7a1.78,1.78,0,0,1,0,2.494Z" transform="translate(-54 -54)"/></svg>