<svg xmlns="http://www.w3.org/2000/svg" width="40" height="40" viewBox="0 0 40 40">
  <g id="Group_980" data-name="Group 980" transform="translate(-7413 -591)">
    <g id="Group_979" data-name="Group 979" transform="translate(7140 205)">
      <g id="Ellipse_6" data-name="Ellipse 6" transform="translate(273 386)" fill="#fff" stroke="#2fe078" stroke-width="1">
        <circle cx="20" cy="20" r="20" stroke="none"/>
        <circle cx="20" cy="20" r="19.5" fill="none"/>
      </g>
    </g>
    <g id="Page-1" transform="translate(7421 599)">
      <g id="Core">
        <g id="language">
          <path id="Shape" d="M12,0A12,12,0,1,0,24,12,12.035,12.035,0,0,0,12,0Zm8.28,7.2H16.8a18.966,18.966,0,0,0-1.68-4.32A9.659,9.659,0,0,1,20.28,7.2ZM12,2.4a16.113,16.113,0,0,1,2.28,4.8H9.72A17.644,17.644,0,0,1,12,2.4Zm-9.24,12A7.737,7.737,0,0,1,2.4,12a7.737,7.737,0,0,1,.36-2.4H6.84A16.082,16.082,0,0,0,6.72,12c0,.84.12,1.56.12,2.4Zm.96,2.4H7.2a18.966,18.966,0,0,0,1.68,4.32A9.659,9.659,0,0,1,3.72,16.8ZM7.2,7.2H3.72A10.114,10.114,0,0,1,8.88,2.88,18.966,18.966,0,0,0,7.2,7.2ZM12,21.6a16.113,16.113,0,0,1-2.28-4.8h4.56A17.644,17.644,0,0,1,12,21.6Zm2.76-7.2H9.24A16.263,16.263,0,0,1,9,12a16.263,16.263,0,0,1,.24-2.4h5.64a16.263,16.263,0,0,1,.24,2.4,16.565,16.565,0,0,1-.36,2.4Zm.36,6.72A17.026,17.026,0,0,0,16.8,16.8h3.48a9.659,9.659,0,0,1-5.16,4.32Zm2.16-6.72A16.082,16.082,0,0,0,17.4,12c0-.84-.12-1.56-.12-2.4h4.08a7.737,7.737,0,0,1,.36,2.4,7.737,7.737,0,0,1-.36,2.4Z" fill="#2fe078" fill-rule="evenodd"/>
        </g>
      </g>
    </g>
  </g>
</svg>
